<?xml version="1.0" standalone="no"?>
<!DOCTYPE svg PUBLIC "-//W3C//DTD SVG 20010904//EN"
 "http://www.w3.org/TR/2001/REC-SVG-20010904/DTD/svg10.dtd">
<svg version="1.0" xmlns="http://www.w3.org/2000/svg"
 width="512.000000pt" height="512.000000pt" viewBox="0 0 512.000000 512.000000"
 preserveAspectRatio="xMidYMid meet">
<metadata>
Created by potrace 1.14, written by Peter Selinger 2001-2017
</metadata>
<g transform="translate(0.000000,512.000000) scale(0.100000,-0.100000)"
fill="#000000" stroke="none">
<path d="M2082 3494 c-11 -12 -10 -17 4 -32 13 -12 19 -13 22 -4 2 6 10 12 18
12 8 0 14 5 14 10 0 6 -7 10 -15 10 -8 0 -15 5 -15 10 0 14 -13 12 -28 -6z"/>
<path d="M2177 3474 c-4 -4 -7 -16 -7 -26 0 -11 -7 -18 -20 -18 -11 0 -20 -7
-20 -15 0 -8 9 -15 19 -15 13 0 21 -8 23 -22 4 -30 32 -30 36 0 3 17 9 22 25
20 14 -2 22 2 22 12 0 8 -10 16 -22 18 -13 2 -23 12 -25 24 -3 22 -19 33 -31
22z"/>
<path d="M2020 3405 c0 -8 -7 -15 -15 -15 -8 0 -15 -7 -15 -15 0 -8 7 -15 15
-15 8 0 15 -7 15 -15 0 -8 5 -15 10 -15 6 0 10 7 10 15 0 8 9 15 20 15 11 0
20 5 20 11 0 6 -9 13 -20 16 -11 3 -20 12 -20 19 0 8 -4 14 -10 14 -5 0 -10
-7 -10 -15z"/>
<path d="M2120 3310 c0 -27 -3 -30 -31 -30 -24 0 -30 -4 -27 -17 2 -11 14 -19
30 -21 21 -3 27 -9 30 -30 4 -36 32 -36 36 1 3 23 8 27 33 27 22 0 29 5 29 20
0 16 -7 20 -30 20 -27 0 -30 3 -30 30 0 23 -4 30 -20 30 -16 0 -20 -7 -20 -30z"/>
<path d="M1762 3274 c-11 -12 -10 -17 4 -32 13 -12 19 -13 22 -4 2 6 10 12 18
12 8 0 14 5 14 10 0 6 -7 10 -15 10 -8 0 -15 5 -15 10 0 14 -13 12 -28 -6z"/>
<path d="M1857 3254 c-4 -4 -7 -16 -7 -26 0 -11 -7 -18 -20 -18 -26 0 -26 -28
0 -32 34 -5 23 -23 -15 -26 -41 -4 -95 17 -95 35 0 7 -4 13 -10 13 -5 0 -10
-7 -10 -15 0 -8 -7 -15 -15 -15 -8 0 -15 -7 -15 -15 0 -8 6 -15 14 -15 8 0 16
-8 18 -17 2 -10 -96 -216 -219 -458 -123 -242 -226 -446 -230 -453 -9 -20 16
-69 43 -81 37 -16 199 -14 233 4 47 24 71 61 180 273 99 193 140 252 176 252
31 0 69 -56 175 -261 61 -119 124 -228 139 -243 75 -72 312 -51 311 27 -1 12
-108 237 -238 500 -225 452 -236 479 -220 494 21 19 23 46 6 61 -7 5 -39 10
-71 10 -46 0 -60 -3 -70 -19 -15 -25 -25 -24 -29 3 -3 22 -19 33 -31 22z m79
-89 c18 -14 17 -14 -13 -15 -23 0 -33 5 -33 15 0 19 21 19 46 0z"/>
<path d="M2713 3130 c-3 -8 -12 -32 -20 -52 -12 -29 -15 -60 -11 -135 3 -54 9
-106 13 -115 6 -16 23 -18 140 -18 79 0 136 -4 140 -10 4 -6 -43 -10 -133 -10
l-140 0 -13 -52 c-7 -29 -13 -80 -13 -113 0 -33 6 -84 13 -112 l13 -53 157 0
157 0 1 157 c0 148 2 158 22 174 30 25 111 33 270 27 155 -6 189 -17 215 -72
18 -39 22 -170 6 -224 -7 -28 -7 -33 5 -28 26 10 25 -12 -1 -33 -26 -20 -37
-21 -429 -21 l-402 0 -12 -37 c-21 -67 -25 -174 -8 -215 31 -74 23 -73 467
-76 422 -3 488 2 570 43 48 25 109 84 134 132 26 52 36 144 36 343 0 183 -12
310 -30 310 -4 0 -11 11 -14 24 -9 37 -89 119 -142 146 l-49 25 -469 5 c-411
4 -469 3 -473 -10z"/>
</g>
</svg>
