<svg width="910.91003" height="603" xmlns="http://www.w3.org/2000/svg" data-name="Layer 1">

 <g>
  <title>Layer 1</title>
  <path id="svg_1" fill="#feb8b8" d="m407.36002,199.5l-16,-10l9.83271,-24.96a13.43822,13.43822 0 0 1 11.79675,-8.49422l0,0a13.43824,13.43824 0 0 1 11.3138,21.66994l-16.94326,21.78428z"/>
  <polygon id="svg_2" fill="#feb8b8" points="323.1929931640625,469.9339904785156 301.16400146484375,460.3810119628906 313.11700439453125,435.77899169921875 330.9079895019531,446.19000244140625 323.1929931640625,469.9339904785156 "/>
  <path id="svg_3" fill="#2f2e41" d="m314.64185,509.26275l-25.33894,-25.842a13.03585,13.03585 0 0 1 0.0602,-18.37489l12.7571,-12.7571a4.15894,4.15894 0 0 1 6.63223,0.99043c3.14046,6.10431 7.41813,9.39549 12.95841,9.56309c3.32112,0.10047 3.84447,-0.02342 4.70927,3.1847l-1.06649,24.17377l4.38336,4.988a10.32366,10.32366 0 0 1 0.07068,13.54831l0,0a10.32365,10.32365 0 0 1 -15.16582,0.52569z"/>
  <path id="svg_4" fill="#2f2e41" d="m332.36002,450.5l-23,-11l19,-120l-92.8823,7.74019c-29.367,2.44725 -53.60725,-23.81476 -47.65485,-52.67614a37.28968,37.28968 0 0 1 13.53715,-22.06405l92,11l59.60977,8.19634a29.52782,29.52782 0 0 1 24.81513,22.90446l0,0a29.52778,29.52778 0 0 1 -0.37722,14.21657l-45.04768,141.68263z"/>
  <circle id="svg_5" fill="#e5e5e5" r="145" cy="434" cx="172.85999"/>
  <path id="svg_6" fill="#3f3d56" d="m392.36002,183.5l23,11l-36.59113,60.114a15.65674,15.65674 0 0 1 -15.69651,7.34285l0,0a15.65677,15.65677 0 0 1 -12.62823,-10.835l-40.87453,-78.18107a20.89473,20.89473 0 0 1 11.6346,-29.4097l0.00005,0a20.89473,20.89473 0 0 1 26.75375,13.27052l19.402,59.6984l25,-33z"/>
  <path id="svg_7" fill="#2f2e41" d="m291.77272,154.17926c7.50915,1.04054 15.222,-1.43462 21.48825,-5.70125s11.2184,-10.2135 15.41041,-16.52993a107.10987,107.10987 0 0 0 15.0811,-35.04346a20.54186,20.54186 0 0 0 20.01613,6.9641c11.92314,-2.67683 19.07358,-16.58822 16.748,-28.58481s-12.16763,-21.50773 -23.399,-26.3225s-23.7483,-5.61017 -35.9682,-5.583c-8.05771,0.01794 -16.26963,0.39369 -23.83862,3.15729s-14.50315,8.27162 -17.19206,15.86747c-1.68579,4.76216 -1.63078,10.03311 -3.54756,14.70707c-3.47982,8.48533 -12.50539,13.11909 -20.97589,16.63482s-17.679,7.08618 -22.6742,14.77759c-5.6408,8.68549 -4.0128,20.80738 2.20328,29.0909s16.19964,13.08654 26.35947,15.09506s20.62679,1.51185 30.97094,1.0069"/>
  <polygon id="svg_8" fill="#feb8b8" points="288.1929931640625,469.9339904785156 266.16400146484375,460.3810119628906 278.11700439453125,435.77899169921875 295.9079895019531,446.19000244140625 288.1929931640625,469.9339904785156 "/>
  <path id="svg_9" fill="#2f2e41" d="m279.64185,509.26275l-25.33894,-25.842a13.03585,13.03585 0 0 1 0.0602,-18.37489l12.7571,-12.7571a4.15894,4.15894 0 0 1 6.63223,0.99043c3.14046,6.10431 7.41813,9.39549 12.95841,9.56309c3.32112,0.10047 3.84447,-0.02342 4.70927,3.1847l-1.06649,24.17377l4.38336,4.988a10.32366,10.32366 0 0 1 0.07068,13.54831l0,0a10.32365,10.32365 0 0 1 -15.16582,0.52569z"/>
  <path id="svg_10" fill="#2f2e41" d="m294.36002,456.5l-23,-11l19,-120l-92.8823,7.74019c-29.367,2.44725 -53.60725,-23.81476 -47.65485,-52.67614a37.28968,37.28968 0 0 1 13.53715,-22.06405l92,11l59.60977,8.19634a29.52782,29.52782 0 0 1 24.81513,22.90446l0,0a29.52778,29.52778 0 0 1 -0.37722,14.21657l-45.04768,141.68263z"/>
  <circle id="svg_11" fill="#feb8b8" r="36.5" cy="92" cx="327.85999"/>
  <path id="svg_12" fill="#feb8b8" d="m302.36002,177.5l-15,-41c10.651,-11.30188 12.99621,-25.17093 9,-41l43,24l-37,58z"/>
  <path id="svg_13" fill="#3f3d56" d="m272.36002,274.5c-26.698,8.91085 -62.02973,5.99544 -106.29892,-9.1625a7.77837,7.77837 0 0 1 -3.36911,-12.39936c29.85848,-35.09611 56.64722,-69.4698 78.75421,-102.74155a58.15219,58.15219 0 0 1 33.5308,-21.22227l20.38302,-4.47432l31,16l8.12434,4.592a16.2167,16.2167 0 0 1 5.70183,22.824c-12.44791,30.41319 -28.67317,58.17894 -56.82617,77.584l-11,29z"/>
  <path id="svg_14" fill="#2f2e41" d="m328.70625,84.89846a39.22217,39.22217 0 0 0 19.01065,15.68906c5.56558,2.14324 12.62772,2.67575 16.805,-1.58093c3.026,-3.0835 3.62924,-7.82916 3.19985,-12.128c-1.34027,-13.41827 -11.42519,-25.103 -23.93794,-30.13062s-26.958,-3.92859 -39.44548,1.1615c-11.782,4.80252 -22.97149,14.64127 -23.60533,27.34866c-0.32483,6.5122 2.0332,13.683 -1.46262,19.18691c-2.63288,4.14532 -7.71813,5.82967 -12.27289,7.66538s-9.44317,4.73238 -10.37812,9.55333c-0.63553,3.277 0.832,6.69743 3.13624,9.11263a24.743,24.743 0 0 0 8.4245,5.28194c7.42792,3.163 15.60472,5.13479 23.58489,3.912s15.69683,-6.08247 18.81993,-13.52724c2.40505,-5.73308 1.91232,-12.20256 1.63467,-18.41347s-0.19342,-12.82566 3.12277,-18.08449s11.01534,-8.20291 15.9712,-4.449"/>
  <path id="svg_15" opacity="0.2" d="m239.86002,190s29,72 36,76s7,-5.99213 7,-5.99213l-43,-70.00787z"/>
  <path id="svg_16" fill="#0794f2" d="m466.48235,166.52745l-176.01128,28.633a3.30619,3.30619 0 0 1 -3.7897,-2.72922l-7.10263,-43.66088a3.30619,3.30619 0 0 1 2.72922,-3.7897l176.01128,-28.633a3.3062,3.3062 0 0 1 3.78971,2.72922l7.10262,43.66088a3.30619,3.30619 0 0 1 -2.72922,3.7897z"/>
  <circle id="svg_17" fill="#fff" r="13.8697" cy="166.35871" cx="310.20572"/>
  <path id="svg_18" fill="#fff" d="m340.33784,152.08889a2.31162,2.31162 0 1 0 0.74233,4.56325l107.56226,-17.49793a2.31161,2.31161 0 1 0 -0.74234,-4.56324l-107.56225,17.49792z"/>
  <path id="svg_19" fill="#fff" d="m342.56485,165.77863a2.31162,2.31162 0 1 0 0.74233,4.56325l107.56226,-17.49788a2.31162,2.31162 0 0 0 -0.74234,-4.56325l-107.56225,17.49788z"/>
  <path id="svg_20" fill="#feb8b8" d="m339.36002,216.5l-16,-10l9.83271,-24.96a13.43822,13.43822 0 0 1 11.79675,-8.49422l0,0a13.43824,13.43824 0 0 1 11.3138,21.66994l-16.94326,21.78428z"/>
  <path id="svg_21" fill="#3f3d56" d="m323.36002,200.5l23,11l-36.59113,60.114a15.65674,15.65674 0 0 1 -15.69651,7.34285l0,0a15.65677,15.65677 0 0 1 -12.62823,-10.835l-40.87453,-78.18107a20.89473,20.89473 0 0 1 11.6346,-29.4097l0.00005,0a20.89473,20.89473 0 0 1 26.75375,13.27052l19.402,59.6984l25,-33z"/>
  <path id="svg_24" fill="#e6e6e6" d="m829.93082,202.17378l-270.00049,0a5.00589,5.00589 0 0 1 -5,-5l0,-66.97559a5.00588,5.00588 0 0 1 5,-5l270.00049,0a5.00589,5.00589 0 0 1 5,5l0,66.97559a5.00589,5.00589 0 0 1 -5,5zm-270.00049,-74.97559a3.00328,3.00328 0 0 0 -3,3l0,66.97559a3.00328,3.00328 0 0 0 3,3l270.00049,0a3.00329,3.00329 0 0 0 3,-3l0,-66.97559a3.00328,3.00328 0 0 0 -3,-3l-270.00049,0z"/>
  <circle id="svg_25" fill="#e6e6e6" r="21" cy="163.68572" cx="594.93033"/>
  <path id="svg_26" fill="#e6e6e6" d="m643.43033,149.68572a3.5,3.5 0 0 0 0,7l165,0a3.5,3.5 0 0 0 0,-7l-165,0z"/>
  <path id="svg_27" fill="#e6e6e6" d="m643.43033,170.68572a3.5,3.5 0 0 0 0,7l165,0a3.5,3.5 0 0 0 0,-7l-165,0z"/>
  <path id="svg_28" fill="#e6e6e6" d="m829.93082,314.17378l-270.00049,0a5.00589,5.00589 0 0 1 -5,-5l0,-66.97559a5.00588,5.00588 0 0 1 5,-5l270.00049,0a5.00589,5.00589 0 0 1 5,5l0,66.97559a5.00589,5.00589 0 0 1 -5,5zm-270.00049,-74.97559a3.00328,3.00328 0 0 0 -3,3l0,66.97559a3.00328,3.00328 0 0 0 3,3l270.00049,0a3.00329,3.00329 0 0 0 3,-3l0,-66.97559a3.00328,3.00328 0 0 0 -3,-3l-270.00049,0z"/>
  <circle id="svg_29" fill="#e6e6e6" r="21" cy="275.68572" cx="594.93033"/>
  <path id="svg_30" fill="#e6e6e6" d="m643.43033,261.68572a3.5,3.5 0 0 0 0,7l165,0a3.5,3.5 0 0 0 0,-7l-165,0z"/>
  <path id="svg_31" fill="#e6e6e6" d="m643.43033,282.68572a3.5,3.5 0 0 0 0,7l165,0a3.5,3.5 0 0 0 0,-7l-165,0z"/>
  <path id="svg_32" fill="#0794f2" d="m694.93057,90a42,42 0 1 1 42,-42a42.0475,42.0475 0 0 1 -42,42zm0,-82a40,40 0 1 0 40,40a40.04552,40.04552 0 0 0 -40,-40z"/>
  <path id="svg_33" fill="#0794f2" d="m711.50269,43.857l-12.429,0l0,-12.42912a4.14309,4.14309 0 1 0 -8.28618,0l0,12.42912l-12.42918,0a4.143,4.143 0 0 0 0,8.28606l12.42915,0l0,12.42915a4.14309,4.14309 0 0 0 8.28618,0l0,-12.42912l12.429,0a4.143,4.143 0 1 0 0,-8.28606l0.00003,-0.00003z"/>
 </g>
</svg>